<?xml version="1.0" encoding="UTF-8"?>
<svg version="1.1" xmlns="http://www.w3.org/2000/svg" width="500" height="500">
<path d="M0 0 C10.17693495 8.01819118 18.7081411 18.87925489 21.38818359 31.81152344 C21.64270506 33.97766361 21.89237306 36.14437747 22.13818359 38.31152344 C22.78175067 43.09944057 23.69972638 45.74418888 26.88818359 49.37402344 C31.86162448 55.04312307 32.60643288 61.16876581 32.25927734 68.55371094 C31.37876888 74.65239061 29.13292035 78.85757614 24.38818359 82.81152344 C18.68733177 86.27674709 12.89784782 86.69497787 6.38818359 85.81152344 C3.43506081 84.73892696 1.09675345 83.44688637 -1.61181641 81.81152344 C-2.14291016 82.43800781 -2.67400391 83.06449219 -3.22119141 83.70996094 C-3.92759766 84.52722656 -4.63400391 85.34449219 -5.36181641 86.18652344 C-6.05791016 86.99863281 -6.75400391 87.81074219 -7.47119141 88.64746094 C-9.61181641 90.81152344 -9.61181641 90.81152344 -11.70947266 91.63964844 C-14.82488 93.55879054 -15.31581519 96.84704663 -16.29931641 100.18652344 C-16.51136719 100.85941406 -16.72341797 101.53230469 -16.94189453 102.22558594 C-17.52073122 104.08078493 -18.06750817 105.94590189 -18.61181641 107.81152344 C-18.86447266 108.57078125 -19.11712891 109.33003906 -19.37744141 110.11230469 C-19.8517757 112.13996841 -19.8517757 112.13996841 -17.67431641 114.62402344 C-14.11654258 120.43339539 -14.86331421 127.28328253 -15.61181641 133.81152344 C-18.4168921 144.54243001 -23.6976657 154.0904008 -31.61181641 161.81152344 C-35.50629151 166.84021423 -38.88126518 172.20899306 -42.21264648 177.61914062 C-56.90512954 201.45818 -56.90512954 201.45818 -69.61181641 207.81152344 C-72.44028185 207.99143625 -75.21861684 208.09803275 -78.04931641 208.12402344 C-79.27122681 208.13598755 -79.27122681 208.13598755 -80.51782227 208.14819336 C-86.41745984 208.09025624 -90.79831252 206.89141498 -96.20947266 204.50683594 C-100.46483319 203.27520313 -103.77137463 204.97931268 -107.61181641 206.81152344 C-108.60181641 207.14152344 -109.59181641 207.47152344 -110.61181641 207.81152344 C-109.0359375 207.95847656 -109.0359375 207.95847656 -107.42822266 208.10839844 C-96.87186842 209.18881167 -87.77519247 210.48462457 -80.18603516 218.60449219 C-77.05239094 222.99781473 -73.61181641 229.30230706 -73.61181641 234.81152344 C-72.87318359 235.05128906 -72.13455078 235.29105469 -71.37353516 235.53808594 C-68.21990438 236.99223535 -66.67646716 238.56409645 -64.42431641 241.18652344 C-63.75013672 241.95738281 -63.07595703 242.72824219 -62.38134766 243.52246094 C-57.65896652 249.63132484 -57.59234321 256.11282769 -58.25341797 263.61816406 C-60.12663282 275.08203481 -68.72135852 285.22768527 -75.68212891 294.09277344 C-76.15593994 294.69782715 -76.62975098 295.30288086 -77.11791992 295.92626953 C-78.17738386 297.26328221 -79.2524658 298.58798579 -80.33813477 299.90380859 C-80.89380127 300.59780762 -81.44946777 301.29180664 -82.02197266 302.00683594 C-82.53381104 302.63090332 -83.04564941 303.2549707 -83.57299805 303.89794922 C-84.90012129 306.34260069 -84.61984602 307.54005024 -83.92431641 310.18652344 C-83.69228516 310.93289063 -83.46025391 311.67925781 -83.22119141 312.44824219 C-81.99430241 317.2063694 -82.35477108 322.28178491 -84.55322266 326.70605469 C-87.62342336 330.87058435 -90.78113255 331.86433052 -95.61181641 332.81152344 C-95.56541016 333.39160156 -95.51900391 333.97167969 -95.47119141 334.56933594 C-95.20858593 340.25286871 -95.84057715 343.28603633 -99.61181641 347.81152344 C-100.02431641 348.3490625 -100.43681641 348.88660156 -100.86181641 349.44042969 C-104.21037507 352.06396561 -108.25549864 351.39146892 -112.33056641 351.26074219 C-119.62759278 350.26174453 -122.9795117 345.83344383 -127.31835938 340.19360352 C-133.78576009 331.40804614 -142.62743883 319.10480149 -142.99072266 307.88574219 C-142.34009997 304.32408605 -140.71144249 301.36833355 -138.94384766 298.23730469 C-137.70893274 295.9883834 -136.8556032 293.8643926 -136.04931641 291.43652344 C-134.61181641 287.81152344 -134.61181641 287.81152344 -132.54931641 285.93652344 C-130.26198349 283.42783572 -130.08626801 281.97670876 -129.49072266 278.67871094 C-129.32258057 277.76976074 -129.15443848 276.86081055 -128.98120117 275.92431641 C-128.8593042 275.22709473 -128.73740723 274.52987305 -128.61181641 273.81152344 C-129.3459375 273.85229004 -130.08005859 273.89305664 -130.83642578 273.93505859 C-177.91899238 276.43364815 -177.91899238 276.43364815 -193.75244141 262.62402344 C-194.36603516 262.02589844 -194.97962891 261.42777344 -195.61181641 260.81152344 C-196.18416016 260.25464844 -196.75650391 259.69777344 -197.34619141 259.12402344 C-206.84135508 248.97077911 -207.7814971 236.09105192 -208.07275391 222.83886719 C-207.90857528 219.60816584 -207.04191646 217.32545879 -205.62353516 214.42871094 C-203.27848475 209.56090742 -203.06586521 205.33756384 -203.04931641 199.99902344 C-202.88014948 193.21555426 -202.22782907 187.26689475 -200.29150391 180.72949219 C-199.47552559 177.22641288 -199.36032422 173.90414769 -199.23681641 170.31152344 C-198.84475713 162.91517443 -197.00898516 157.34930393 -193.61181641 150.81152344 C-193.11681641 149.84859375 -192.62181641 148.88566406 -192.11181641 147.89355469 C-188.87055989 141.99540281 -185.10800037 136.61493484 -180.98681641 131.31152344 C-180.53161621 130.72387207 -180.07641602 130.1362207 -179.60742188 129.53076172 C-173.38122867 121.72940256 -167.35414938 119.30474719 -157.61181641 118.18652344 C-156.27901781 118.0559452 -154.94584523 117.92886857 -153.61181641 117.81152344 C-153.81677734 116.833125 -154.02173828 115.85472656 -154.23291016 114.84667969 C-156.69456645 102.91617715 -156.69456645 102.91617715 -157.11181641 97.81152344 C-157.37438049 94.78924319 -157.77597822 93.47663334 -159.17431641 90.62402344 C-162.42922569 83.69525615 -161.57199217 74.47174421 -159.04931641 67.43652344 C-156.10312841 61.15132237 -152.21315465 55.64576825 -145.61181641 53.06152344 C-140.60853481 50.8749748 -139.13688953 46.81823713 -136.64697266 42.17871094 C-130.03933116 31.24629833 -119.76290791 21.49362808 -107.79931641 16.87402344 C-103.45327092 15.10510668 -101.97672834 12.82280001 -99.79150391 8.77636719 C-97.2571658 4.55526762 -93.13097135 1.66207371 -88.61181641 -0.18847656 C-86.45131715 -0.46991002 -84.28270795 -0.69106655 -82.11181641 -0.87597656 C-74.60450527 -1.67464672 -67.87443213 -3.94507744 -60.84228516 -6.62475586 C-40.24600713 -14.39224424 -18.13206155 -13.3697176 0 0 Z " fill="#3F3466" transform="translate(368.61181640625,123.1884765625)"/>
<path d="M0 0 C10.17693495 8.01819118 18.7081411 18.87925489 21.38818359 31.81152344 C21.64270506 33.97766361 21.89237306 36.14437747 22.13818359 38.31152344 C22.78175067 43.09944057 23.69972638 45.74418888 26.88818359 49.37402344 C31.86162448 55.04312307 32.60643288 61.16876581 32.25927734 68.55371094 C31.37876888 74.65239061 29.13292035 78.85757614 24.38818359 82.81152344 C18.68733177 86.27674709 12.89784782 86.69497787 6.38818359 85.81152344 C3.43506081 84.73892696 1.09675345 83.44688637 -1.61181641 81.81152344 C-2.14291016 82.43800781 -2.67400391 83.06449219 -3.22119141 83.70996094 C-3.92759766 84.52722656 -4.63400391 85.34449219 -5.36181641 86.18652344 C-6.05791016 86.99863281 -6.75400391 87.81074219 -7.47119141 88.64746094 C-9.61181641 90.81152344 -9.61181641 90.81152344 -11.70947266 91.63964844 C-14.82488 93.55879054 -15.31581519 96.84704663 -16.29931641 100.18652344 C-16.51136719 100.85941406 -16.72341797 101.53230469 -16.94189453 102.22558594 C-18.93912795 108.41482229 -18.93912795 108.41482229 -19.61181641 114.81152344 C-20.27181641 114.15152344 -20.93181641 113.49152344 -21.61181641 112.81152344 C-21.34009007 109.09793021 -20.29503953 105.85018415 -19.04931641 102.37402344 C-17.29826736 97.30879376 -16.89421423 92.96432995 -18.61181641 87.81152344 C-19.60181641 87.81152344 -20.59181641 87.81152344 -21.61181641 87.81152344 C-21.79744141 89.23464844 -21.79744141 89.23464844 -21.98681641 90.68652344 C-22.19392264 92.0617088 -22.40238834 93.43668975 -22.61181641 94.81152344 C-22.71107422 95.57207031 -22.81033203 96.33261719 -22.91259766 97.11621094 C-24.01788653 104.10520929 -26.68224411 109.92784318 -30.61181641 115.81152344 C-31.60181641 116.30652344 -31.60181641 116.30652344 -32.61181641 116.81152344 C-32.94181641 115.16152344 -33.27181641 113.51152344 -33.61181641 111.81152344 C-34.12744141 111.72902344 -34.64306641 111.64652344 -35.17431641 111.56152344 C-37.61181641 110.81152344 -37.61181641 110.81152344 -40.98681641 108.68652344 C-44.59597233 106.54095304 -46.49047622 106.9704336 -50.61181641 107.81152344 C-53.61466409 107.54109813 -55.71297005 106.87443377 -58.61181641 105.81152344 C-60.11181641 103.18652344 -60.11181641 103.18652344 -60.61181641 100.81152344 C-62.92181641 100.48152344 -65.23181641 100.15152344 -67.61181641 99.81152344 C-67.61181641 99.15152344 -67.61181641 98.49152344 -67.61181641 97.81152344 C-68.27181641 97.81152344 -68.93181641 97.81152344 -69.61181641 97.81152344 C-69.61181641 97.15152344 -69.61181641 96.49152344 -69.61181641 95.81152344 C-70.60181641 95.81152344 -71.59181641 95.81152344 -72.61181641 95.81152344 C-72.61181641 95.15152344 -72.61181641 94.49152344 -72.61181641 93.81152344 C-73.27181641 93.81152344 -73.93181641 93.81152344 -74.61181641 93.81152344 C-74.61181641 93.15152344 -74.61181641 92.49152344 -74.61181641 91.81152344 C-76.18962891 91.50214844 -76.18962891 91.50214844 -77.79931641 91.18652344 C-81.40531666 90.16036705 -83.03650284 88.5107043 -85.29150391 85.47167969 C-88.32840715 81.65308834 -91.97626621 78.35670684 -96.61181641 76.81152344 C-96.95524089 75.48075354 -97.28801514 74.14720365 -97.61181641 72.81152344 C-98.60181641 72.15152344 -99.59181641 71.49152344 -100.61181641 70.81152344 C-100.61181641 70.15152344 -100.61181641 69.49152344 -100.61181641 68.81152344 C-105.84714065 67.40380292 -110.25438827 66.24349569 -115.61181641 67.81152344 C-116.27181641 68.47152344 -116.93181641 69.13152344 -117.61181641 69.81152344 C-119.9294737 70.53079639 -122.26277514 71.20251274 -124.61181641 71.81152344 C-124.28181641 72.80152344 -123.95181641 73.79152344 -123.61181641 74.81152344 C-123.81806641 75.80152344 -124.02431641 76.79152344 -124.23681641 77.81152344 C-124.98610033 82.20547236 -123.59055974 85.75798849 -122.31494141 89.94433594 C-121.25829305 94.25311311 -121.35384551 98.40690927 -121.61181641 102.81152344 C-120.95181641 102.81152344 -120.29181641 102.81152344 -119.61181641 102.81152344 C-119.30244141 103.90464844 -118.99306641 104.99777344 -118.67431641 106.12402344 C-117.74701644 110.62345297 -117.74701644 110.62345297 -114.98681641 113.87402344 C-111.91857604 115.08517095 -108.79503032 115.95450431 -105.61181641 116.81152344 C-105.61181641 117.14152344 -105.61181641 117.47152344 -105.61181641 117.81152344 C-105.04672363 117.80628662 -104.48163086 117.8010498 -103.89941406 117.7956543 C-101.3452261 117.77489922 -98.79105587 117.76186803 -96.23681641 117.74902344 C-95.34736328 117.74064453 -94.45791016 117.73226562 -93.54150391 117.72363281 C-92.69072266 117.72041016 -91.83994141 117.7171875 -90.96337891 117.71386719 C-90.17785645 117.70863037 -89.39233398 117.70339355 -88.58300781 117.69799805 C-86.61181641 117.81152344 -86.61181641 117.81152344 -84.61181641 118.81152344 C-79.92228816 126.23660983 -79.28801483 135.23078157 -79.61181641 143.81152344 C-87.1362595 144.68937513 -91.02605522 142.83315379 -97.34228516 138.81152344 C-99.68659857 137.37748704 -101.88069473 136.15661556 -104.35009766 134.99902344 C-105.28946167 134.55828491 -105.28946167 134.55828491 -106.24780273 134.10864258 C-108.02119778 133.29081364 -109.80073683 132.48634653 -111.58056641 131.68261719 C-115.09314379 129.51441542 -116.55017736 127.34440143 -118.61181641 123.81152344 C-120.71214599 121.37514112 -121.45862271 120.862588 -124.61181641 119.81152344 C-128.4102954 115.89434198 -129.89232111 111.88403456 -131.61181641 106.81152344 C-132.27181641 106.81152344 -132.93181641 106.81152344 -133.61181641 106.81152344 C-133.61181641 106.15152344 -133.61181641 105.49152344 -133.61181641 104.81152344 C-135.26181641 104.48152344 -136.91181641 104.15152344 -138.61181641 103.81152344 C-139.27181641 105.46152344 -139.93181641 107.11152344 -140.61181641 108.81152344 C-143.91181641 108.15152344 -147.21181641 107.49152344 -150.61181641 106.81152344 C-150.61181641 102.85152344 -150.61181641 98.89152344 -150.61181641 94.81152344 C-149.62181641 94.31652344 -149.62181641 94.31652344 -148.61181641 93.81152344 C-152.09965154 90.56436282 -152.09965154 90.56436282 -156.61181641 89.81152344 C-156.94181641 88.82152344 -157.27181641 87.83152344 -157.61181641 86.81152344 C-157.76922354 88.8485797 -157.76922354 88.8485797 -156.67431641 90.56152344 C-154.10594547 96.00042659 -154.49420945 101.9311754 -154.61181641 107.81152344 C-154.94181641 107.81152344 -155.27181641 107.81152344 -155.61181641 107.81152344 C-155.77617187 106.41740234 -155.77617187 106.41740234 -155.94384766 104.99511719 C-156.81572236 97.44493666 -156.81572236 97.44493666 -159.23681641 90.31152344 C-162.06236256 83.11922413 -161.64713722 74.68130821 -159.04931641 67.43652344 C-156.10312841 61.15132237 -152.21315465 55.64576825 -145.61181641 53.06152344 C-140.60853481 50.8749748 -139.13688953 46.81823713 -136.64697266 42.17871094 C-130.03933116 31.24629833 -119.76290791 21.49362808 -107.79931641 16.87402344 C-103.45327092 15.10510668 -101.97672834 12.82280001 -99.79150391 8.77636719 C-97.2571658 4.55526762 -93.13097135 1.66207371 -88.61181641 -0.18847656 C-86.45131715 -0.46991002 -84.28270795 -0.69106655 -82.11181641 -0.87597656 C-74.60450527 -1.67464672 -67.87443213 -3.94507744 -60.84228516 -6.62475586 C-40.24600713 -14.39224424 -18.13206155 -13.3697176 0 0 Z " fill="#4B416E" transform="translate(368.61181640625,123.1884765625)"/>
<path d="M0 0 C1.13179688 -0.02449219 2.26359375 -0.04898438 3.4296875 -0.07421875 C4.51765625 -0.07808594 5.605625 -0.08195312 6.7265625 -0.0859375 C7.71479004 -0.09415527 8.70301758 -0.10237305 9.72119141 -0.11083984 C13.09670134 0.5071238 14.28328831 1.70829796 16.375 4.375 C16.625 6.75 16.625 6.75 15.375 9.375 C12.8722244 11.61152288 10.13861492 13.47660522 7.375 15.375 C-0.95090315 21.53616833 -5.20952862 28.64876715 -7.2265625 38.76953125 C-8.78322625 52.85581201 -6.63192366 66.79950055 1.82421875 78.35546875 C7.20607757 84.98038157 14.10181185 89.26315987 22.375 91.375 C34.74985428 92.47797614 45.83048323 91.09798926 56.8671875 85.3984375 C59.61545856 84.27686893 61.43637697 84.02634981 64.375 84.375 C66.86505677 86.86505677 66.67203766 87.74970732 66.6875 91.1875 C66.60128679 95.47968602 65.99291206 97.88445058 63.375 101.375 C62.900625 102.365 62.42625 103.355 61.9375 104.375 C60.35812218 107.40740541 58.67672547 109.85052691 56.375 112.375 C55.715 112.375 55.055 112.375 54.375 112.375 C54.106875 113.014375 53.83875 113.65375 53.5625 114.3125 C52.375 116.375 52.375 116.375 49.375 117.375 C48.16617904 119.37516466 48.16617904 119.37516466 47.375 121.375 C46.715 121.375 46.055 121.375 45.375 121.375 C45.375 122.035 45.375 122.695 45.375 123.375 C41.0912359 125.94525846 37.2024799 127.96207905 32.375 129.375 C32.375 130.035 32.375 130.695 32.375 131.375 C30.77243892 131.88012244 29.16788208 132.37891627 27.5625 132.875 C26.22251953 133.29265625 26.22251953 133.29265625 24.85546875 133.71875 C22.375 134.375 22.375 134.375 19.375 134.375 C19.375 135.035 19.375 135.695 19.375 136.375 C5.14064226 138.40847968 -7.00647046 137.75797503 -20.625 133.375 C-20.625 132.715 -20.625 132.055 -20.625 131.375 C-21.70587891 131.44654297 -21.70587891 131.44654297 -22.80859375 131.51953125 C-32.96866615 130.99814057 -41.91430648 121.22029196 -48.625 114.375 C-52.28751775 110.30856822 -54.89907997 106.3456913 -57.3125 101.4375 C-57.89386719 100.27347656 -58.47523437 99.10945313 -59.07421875 97.91015625 C-60.61075375 94.4074757 -61.68569529 91.08025729 -62.625 87.375 C-62.80861084 86.73328857 -62.99222168 86.09157715 -63.18139648 85.43041992 C-65.01909854 78.41794359 -64.92039418 71.46010969 -64.875 64.25 C-64.88273437 63.01378906 -64.89046875 61.77757812 -64.8984375 60.50390625 C-64.8619218 43.50584677 -57.63532887 30.78580105 -46.140625 18.765625 C-33.79231472 7.03089535 -16.78553683 0.01924947 0 0 Z " fill="#DAD7D7" transform="translate(168.625,37.625)"/>
<path d="M0 0 C10.17693495 8.01819118 18.7081411 18.87925489 21.38818359 31.81152344 C21.64270506 33.97766361 21.89237306 36.14437747 22.13818359 38.31152344 C22.78175067 43.09944057 23.69972638 45.74418888 26.88818359 49.37402344 C31.86162448 55.04312307 32.60643288 61.16876581 32.25927734 68.55371094 C31.37876888 74.65239061 29.13292035 78.85757614 24.38818359 82.81152344 C18.82519464 86.1929481 12.77310727 86.8088622 6.38818359 85.81152344 C4.05615234 84.28808594 4.05615234 84.28808594 2.38818359 82.81152344 C5.02818359 82.81152344 7.66818359 82.81152344 10.38818359 82.81152344 C8.40818359 81.82152344 8.40818359 81.82152344 6.38818359 80.81152344 C6.38818359 79.82152344 6.38818359 78.83152344 6.38818359 77.81152344 C5.78619141 77.71742188 5.18419922 77.62332031 4.56396484 77.52636719 C1.14084847 76.40171674 0.07010389 74.21986247 -1.69384766 71.20214844 C-3.31598599 66.97768606 -2.74104782 63.11441178 -1.61181641 58.81152344 C-0.04931641 55.68652344 -0.04931641 55.68652344 1.38818359 53.81152344 C2.25443359 54.14152344 3.12068359 54.47152344 4.01318359 54.81152344 C7.98102038 55.98717878 11.57862721 56.71630163 15.38818359 54.81152344 C15.02328549 36.06561843 15.02328549 36.06561843 8.38818359 18.81152344 C7.72818359 18.48152344 7.06818359 18.15152344 6.38818359 17.81152344 C6.24380859 18.61589844 6.09943359 19.42027344 5.95068359 20.24902344 C5.38818359 22.81152344 5.38818359 22.81152344 4.38818359 23.81152344 C2.899465 23.89821776 1.4067386 23.91855837 -0.08447266 23.90917969 C-0.98359375 23.90595703 -1.88271484 23.90273437 -2.80908203 23.89941406 C-4.22737305 23.8868457 -4.22737305 23.8868457 -5.67431641 23.87402344 C-7.0984082 23.86725586 -7.0984082 23.86725586 -8.55126953 23.86035156 C-10.90484706 23.84852454 -13.25830118 23.83204369 -15.61181641 23.81152344 C-15.61181641 24.47152344 -15.61181641 25.13152344 -15.61181641 25.81152344 C-17.07275391 27.31933594 -17.07275391 27.31933594 -18.98681641 28.93652344 C-19.61330078 29.47535156 -20.23978516 30.01417969 -20.88525391 30.56933594 C-22.61181641 31.81152344 -22.61181641 31.81152344 -24.61181641 31.81152344 C-24.79744141 33.20371094 -24.79744141 33.20371094 -24.98681641 34.62402344 C-25.61181641 37.81152344 -25.61181641 37.81152344 -27.61181641 40.81152344 C-28.27181641 40.81152344 -28.93181641 40.81152344 -29.61181641 40.81152344 C-29.94181641 41.80152344 -30.27181641 42.79152344 -30.61181641 43.81152344 C-32.26181641 44.14152344 -33.91181641 44.47152344 -35.61181641 44.81152344 C-35.61181641 45.14152344 -35.61181641 45.47152344 -35.61181641 45.81152344 C-33.69733572 47.37293614 -31.76753968 48.88273695 -29.79931641 50.37402344 C-29.2134375 50.82076416 -28.62755859 51.26750488 -28.02392578 51.7277832 C-17.5965081 59.67631662 -17.5965081 59.67631662 -6.61181641 66.81152344 C-5.05148018 68.37185967 -5.40474082 69.9009948 -5.36181641 72.06152344 C-5.33603516 72.82980469 -5.31025391 73.59808594 -5.28369141 74.38964844 C-5.69309598 77.4114441 -6.92324902 79.30533395 -8.61181641 81.81152344 C-10.53106428 81.58217935 -12.44725701 81.32718001 -14.36181641 81.06152344 C-15.42916016 80.92230469 -16.49650391 80.78308594 -17.59619141 80.63964844 C-21.08337162 79.682029 -22.17917053 78.40239019 -24.61181641 75.81152344 C-25.38267578 75.5034375 -26.15353516 75.19535156 -26.94775391 74.87792969 C-30.52906868 73.44435354 -33.26966854 71.15416487 -36.23681641 68.74902344 C-36.84855713 68.26312744 -37.46029785 67.77723145 -38.09057617 67.27661133 C-41.00978495 64.94906734 -43.89283616 62.58791321 -46.72509766 60.15527344 C-47.65708984 59.36121094 -48.58908203 58.56714844 -49.54931641 57.74902344 C-50.36271484 57.03617187 -51.17611328 56.32332031 -52.01416016 55.58886719 C-54.60175246 53.61095712 -54.60175246 53.61095712 -58.08837891 52.85839844 C-62.1609445 51.64836786 -64.02015916 50.06316115 -67.04931641 47.12402344 C-67.99806641 46.22167969 -68.94681641 45.31933594 -69.92431641 44.38964844 C-70.81119141 43.53886719 -71.69806641 42.68808594 -72.61181641 41.81152344 C-73.9156572 40.65584637 -75.22724577 39.50880073 -76.54931641 38.37402344 C-80.02056132 35.34836276 -83.45087407 32.27983305 -86.86181641 29.18652344 C-87.62353149 28.5031189 -87.62353149 28.5031189 -88.40063477 27.8059082 C-96.52509856 20.40135061 -96.52509856 20.40135061 -96.79931641 15.37402344 C-94.82991532 9.46582018 -90.76995425 7.02008063 -85.48681641 4.06152344 C-81.03127377 2.31185829 -76.22761966 1.9639852 -71.50244141 1.43652344 C-68.48828013 0.78481289 -67.46258245 0.20969915 -65.61181641 -2.18847656 C-66.20607422 -1.98351562 -66.80033203 -1.77855469 -67.41259766 -1.56738281 C-73.01515241 0.25366531 -78.24328549 1.21977448 -84.11572266 1.62792969 C-86.98645754 1.8390792 -89.78451681 2.27662892 -92.61181641 2.81152344 C-89.21139295 -0.28886266 -86.6344958 -0.59827501 -82.11181641 -0.93847656 C-74.58559834 -1.68628295 -67.88602963 -3.94020232 -60.84228516 -6.625 C-40.24489176 -14.39081918 -18.13312807 -13.370504 0 0 Z " fill="#645D8D" transform="translate(368.61181640625,123.1884765625)"/>
<path d="M0 0 C0.08226668 3.04386724 -0.02391783 5.07175348 -1 8 C-0.01 8.33 0.98 8.66 2 9 C3 12 3 12 2.1328125 13.88671875 C1.75898438 14.58410156 1.38515625 15.28148438 1 16 C-0.53838052 21.66921709 -1.25479656 27.13967911 -1 33 C0.485 33.495 0.485 33.495 2 34 C1.67 36.31 1.34 38.62 1 41 C1.7425 40.62875 2.485 40.2575 3.25 39.875 C6 39 6 39 8.10546875 39.6640625 C10 41 10 41 10.72265625 43.09375 C10.83480469 43.8878125 10.94695312 44.681875 11.0625 45.5 C11.35212186 47.8750413 11.35212186 47.8750413 12 50 C12.99 50.66 13.98 51.32 15 52 C15 52.66 15 53.32 15 54 C16.65 54.33 18.3 54.66 20 55 C19.34 55.66 18.68 56.32 18 57 C18.3185177 59.10820797 18.3185177 59.10820797 19 61 C19.66 61 20.32 61 21 61 C21.20625 61.928125 21.4125 62.85625 21.625 63.8125 C23.36446869 67.8449047 25.0988999 68.25695527 29 70 C29.33 70.99 29.66 71.98 30 73 C30.66 73 31.32 73 32 73 C31.505 74.98 31.505 74.98 31 77 C31.66 76.67 32.32 76.34 33 76 C38.55071834 75.57225647 43.86625435 75.88545626 49.3125 77 C58.72989296 78.77592271 68.4575641 78.16557884 78 78 C78.30292969 77.37609375 78.60585937 76.7521875 78.91796875 76.109375 C80.07733731 73.84923413 80.95702401 72.51331555 83 71 C85.6875 70.8125 85.6875 70.8125 88 71 C88 70.34 88 69.68 88 69 C88.66 68.67 89.32 68.34 90 68 C90.495 66.515 90.495 66.515 91 65 C91.5775 64.87625 92.155 64.7525 92.75 64.625 C96.08793754 63.69779513 97.67792371 61.50069754 100 59 C101 58 102 57 103 56 C102.58108174 61.89063525 101.42137896 65.94524925 98.0625 70.875 C97.65990967 71.47650879 97.25731934 72.07801758 96.8425293 72.69775391 C88.22388174 85.19554173 76.84813285 94.22664985 62 98 C62 98.66 62 99.32 62 100 C61.01 100 60.02 100 59 100 C59 100.66 59 101.32 59 102 C44.76564226 104.03347968 32.61852954 103.38297503 19 99 C19 98.01 19 97.02 19 96 C17.67355469 95.59394531 17.67355469 95.59394531 16.3203125 95.1796875 C0.42038759 89.53053771 -11.06083034 75.84155072 -18.125 61.02246094 C-20.35913958 55.85850661 -21.75613299 50.47893804 -23 45 C-23.17289551 44.35949707 -23.34579102 43.71899414 -23.52392578 43.05908203 C-26.10369996 31.90122797 -24.49465783 19.01420737 -19 9 C-18.01 8.67 -17.02 8.34 -16 8 C-15.938125 7.236875 -15.87625 6.47375 -15.8125 5.6875 C-15 3 -15 3 -12.6875 1.25 C-7.91198042 -0.9711719 -5.22412549 -1.06857112 0 0 Z " fill="#BDB8BE" transform="translate(129,72)"/>
<path d="M0 0 C8.15440777 4.55590394 14.99846653 11.67628464 20 19.5 C20.40089844 20.11230469 20.80179687 20.72460938 21.21484375 21.35546875 C24.56288092 27.13410941 24.78176242 32.93541361 25 39.5 C25.06316406 40.263125 25.12632812 41.02625 25.19140625 41.8125 C25.82265847 52.8899583 20.94488114 64.05657142 14 72.5 C12.515 72.995 12.515 72.995 11 73.5 C10.5359375 74.49 10.5359375 74.49 10.0625 75.5 C9 77.5 9 77.5 6.875 78.25 C6.25625 78.3325 5.6375 78.415 5 78.5 C5 79.16 5 79.82 5 80.5 C-5.93211914 86.37095287 -17.56080365 90.06868101 -30 87.5 C-32.90978402 86.32200846 -35.66509195 84.90614068 -38.4375 83.4375 C-39.16904297 83.06044922 -39.90058594 82.68339844 -40.65429688 82.29492188 C-42.44093953 81.37240704 -44.22115829 80.4374688 -46 79.5 C-46 78.84 -46 78.18 -46 77.5 C-46.53625 77.273125 -47.0725 77.04625 -47.625 76.8125 C-55.0529918 72.70755716 -59.94885165 66.66533067 -62.3125 58.5 C-62.6528125 57.015 -62.6528125 57.015 -63 55.5 C-61.875 54 -61.875 54 -60 52.5 C-56.65901988 52.12877999 -54.35905506 52.37400703 -51.18359375 53.48828125 C-43.51187808 55.9262866 -35.98528005 55.40153498 -28.6875 52.0625 C-19.87088078 47.06602755 -14.42871815 40.60514344 -11.54296875 30.8515625 C-10.54266389 24.67701883 -11.22285156 18.6833985 -12 12.5 C-12.66 12.5 -13.32 12.5 -14 12.5 C-14.89429374 10.9274835 -15.76487427 9.34146259 -16.625 7.75 C-17.11226563 6.86828125 -17.59953125 5.9865625 -18.1015625 5.078125 C-19 2.5 -19 2.5 -18.3359375 0.234375 C-14.43035437 -4.83603117 -5.057944 -2.25598724 0 0 Z " fill="#B4A9DD" transform="translate(399,263.5)"/>
<path d="M0 0 C2.88262477 2.17543331 5.24686123 4.78616283 7.6875 7.4375 C9.11080885 8.92289677 10.53789094 10.40468734 11.96875 11.8828125 C12.6596875 12.59856445 13.350625 13.31431641 14.0625 14.05175781 C17.27244816 17.27950306 20.73783991 20.06603613 24.31640625 22.87890625 C26.77192834 24.81973376 29.15353763 26.82796383 31.52392578 28.87133789 C36.97913226 33.56873816 42.57584903 38.02611191 48.3125 42.375 C49.74497503 43.46850984 51.1772654 44.56226162 52.609375 45.65625 C54.83808447 47.35831923 57.071038 49.05302415 59.31835938 50.73046875 C61.58251145 52.42525037 63.8236464 54.14700042 66.0625 55.875 C66.75964111 56.38595215 67.45678223 56.8969043 68.17504883 57.42333984 C71.67104585 60.16242577 72.8774446 61.14571679 73.53125 65.703125 C72.88530057 69.71181119 72.06179745 71.33074069 69 74 C65.3125 74.6875 65.3125 74.6875 62 75 C61.67 75.66 61.34 76.32 61 77 C61 76.34 61 75.68 61 75 C59.81921875 74.95101562 58.6384375 74.90203125 57.421875 74.8515625 C55.86456063 74.77651121 54.30727009 74.70096439 52.75 74.625 C51.97269531 74.5940625 51.19539063 74.563125 50.39453125 74.53125 C43.27568856 74.16618114 43.27568856 74.16618114 40 72 C40.33 71.34 40.66 70.68 41 70 C40.04287109 69.83564453 40.04287109 69.83564453 39.06640625 69.66796875 C38.24011719 69.50941406 37.41382813 69.35085937 36.5625 69.1875 C35.73878906 69.03667969 34.91507812 68.88585937 34.06640625 68.73046875 C33.38449219 68.48941406 32.70257813 68.24835938 32 68 C31.67 67.01 31.34 66.02 31 65 C30.34 65 29.68 65 29 65 C29 64.34 29 63.68 29 63 C28.01 63 27.02 63 26 63 C26 62.34 26 61.68 26 61 C24.02 60.67 22.04 60.34 20 60 C19.67 59.01 19.34 58.02 19 57 C18.34 57 17.68 57 17 57 C17 56.34 17 55.68 17 55 C16.38125 55.20625 15.7625 55.4125 15.125 55.625 C14.42375 55.74875 13.7225 55.8725 13 56 C11 54 11 54 10 51 C8.68 51 7.36 51 6 51 C6 50.34 6 49.68 6 49 C4.02 48.67 2.04 48.34 0 48 C0 47.01 0 46.02 0 45 C-0.99 45 -1.98 45 -3 45 C-3 44.01 -3 43.02 -3 42 C-3.61875 41.896875 -4.2375 41.79375 -4.875 41.6875 C-7 41 -7 41 -9 38 C-13.71339576 38.48113474 -13.71339576 38.48113474 -18.125 40.0625 C-20.50818085 41.25409043 -22.37227096 41.14598495 -25 41 C-25.2475 41.5775 -25.495 42.155 -25.75 42.75 C-27.22820473 45.41076851 -28.58314039 47.13556544 -31 49 C-33.625 49.0625 -33.625 49.0625 -36 48 C-37.3125 45.4375 -37.3125 45.4375 -38 43 C-39.5159375 43.2475 -39.5159375 43.2475 -41.0625 43.5 C-44.76262933 43.96985769 -48.27607391 44.07599849 -52 44 C-52 44.99 -52 45.98 -52 47 C-53.485 47.495 -53.485 47.495 -55 48 C-57.21276347 50.24321434 -57.97492101 51.40706108 -58.109375 54.5859375 C-57.99078125 55.50632813 -57.8721875 56.42671875 -57.75 57.375 C-57.57404297 58.81939453 -57.57404297 58.81939453 -57.39453125 60.29296875 C-56.75859437 64.65657522 -56.75859437 64.65657522 -56 69 C-57.485 69.495 -57.485 69.495 -59 70 C-59.66 68.68 -60.32 67.36 -61 66 C-61.15740714 68.03705626 -61.15740714 68.03705626 -60.0625 69.75 C-57.49412907 75.18890315 -57.88239304 81.11965196 -58 87 C-58.33 87 -58.66 87 -59 87 C-59.16435547 85.60587891 -59.16435547 85.60587891 -59.33203125 84.18359375 C-60.20390596 76.63341322 -60.20390596 76.63341322 -62.625 69.5 C-65.45054616 62.3077007 -65.03532082 53.86978477 -62.4375 46.625 C-60.16791784 41.67616381 -56.81452288 37.83595278 -53 34 C-52.34 34.33 -51.68 34.66 -51 35 C-54.875 40.875 -54.875 40.875 -56 42 C-53.91117258 42.2094457 -53.91117258 42.2094457 -52.375 40.6875 C-50 39 -50 39 -46.3125 38.1875 C-41.13264139 36.38414182 -39.09801133 31.99415932 -36.42480469 27.54321289 C-29.79491402 16.5353863 -14.73612412 -2.53581919 0 0 Z " fill="#7E6E8E" transform="translate(272,144)"/>
<path d="M0 0 C2.23256478 1.60349957 4.12865059 3.37849281 6.11328125 5.27734375 C11.45105679 10.15096489 16.61071623 10.11399376 23.40625 9.91796875 C26.89455816 10.02829175 29.14928065 11.02642506 32 13 C34.51528943 16.77293414 34.06379464 18.35303192 33.4921875 22.66796875 C33 25 33 25 31.4375 28.5625 C29.36200486 33.52564055 29.08525413 37.48147891 30.90234375 42.484375 C31.62996085 44.1933689 32.35911034 45.90171125 33.08984375 47.609375 C34.37212013 50.97741424 34.62626553 53.45116202 34 57 C30.82718559 61.19931319 27.98620287 62.63690785 23 64 C20.44057751 64.24323973 17.87743371 64.44914754 15.3125 64.625 C8.07140487 65.28826836 4.05879607 67.60356 -1.6015625 72.26953125 C-4.05788299 74.04176248 -5.38542371 74.65135184 -8.375 74.8125 C-12.8388219 73.8119882 -14.32821482 72.6933501 -17 69 C-18.17549393 65.84472681 -18.900266 62.8849637 -19.27734375 59.5390625 C-19.92738164 54.29656744 -19.92738164 54.29656744 -22.90625 50.09765625 C-25.08446903 48.48722159 -25.08446903 48.48722159 -27.3203125 47.15625 C-28.15175781 46.58390625 -28.15175781 46.58390625 -29 46 C-29 45.34 -29 44.68 -29 44 C-29.78375 43.7525 -30.5675 43.505 -31.375 43.25 C-34 42 -34 42 -35.375 40.3125 C-36.31263269 36.84325904 -35.91168904 34.46441837 -35 31 C-31.10959021 26.04856936 -25.58827478 22.79413739 -20 20 C-19.10869433 17.58788564 -18.30962493 15.20649125 -17.5625 12.75 C-16.1719972 8.19687097 -14.8513305 3.87955965 -12 0 C-7.76582643 -1.41139119 -4.28315188 -1.26753438 0 0 Z " fill="#A08CCE" transform="translate(117,193)"/>
<path d="M0 0 C3.20184948 1.05939197 4.28118571 2.92424559 6.11328125 5.69921875 C6.90070857 7.65593614 7.62915905 9.63729175 8.30078125 11.63671875 C10.5229173 17.2855132 12.89639793 19.51210879 18.08203125 22.4765625 C20.84024361 24.13679417 22.05134298 25.66510942 23.11328125 28.69921875 C23.04048961 32.26600925 22.56926265 34.09124355 20.42578125 36.94921875 C18.11328125 38.69921875 18.11328125 38.69921875 14.98828125 39.69921875 C12.06618485 40.38755271 12.06618485 40.38755271 10.984375 42.42578125 C10.00005006 44.99473691 9.64832442 47.3473416 9.30078125 50.07421875 C8.3666292 55.44918595 7.30869328 58.15642637 3.11328125 61.69921875 C-0.24338564 62.81810771 -2.43007231 63.26868958 -5.78515625 61.95703125 C-8.93178841 60.24430742 -11.38100913 58.20492837 -13.88671875 55.69921875 C-17.97809728 53.48766279 -20.41032345 53.80393969 -24.88671875 54.69921875 C-29.11952851 55.15273408 -31.86393876 55.11997851 -35.32421875 52.63671875 C-37.88671875 49.69921875 -37.88671875 49.69921875 -38.51171875 46.32421875 C-37.86308452 42.56214024 -36.76069028 40.60069453 -34.79296875 37.4453125 C-33.20650851 34.38864126 -33.41575667 32.0548236 -33.88671875 28.69921875 C-34.83266982 26.64014422 -35.89926968 24.67621615 -36.984375 22.6875 C-38.39369386 19.58211775 -38.34409214 17.0315106 -37.88671875 13.69921875 C-36.78125 12.03125 -36.78125 12.03125 -34.88671875 10.69921875 C-31.77734375 10.29296875 -31.77734375 10.29296875 -28.13671875 10.19921875 C-20.51945832 9.78430117 -16.09890453 8.88352548 -10.51171875 3.51171875 C-7.10934843 0.43960108 -4.501451 0.02398642 0 0 Z " fill="#C0BED0" transform="translate(276.88671875,20.30078125)"/>
<path d="M0 0 C2.83943654 2.12594886 5.02411706 4.74191556 7.3125 7.4375 C8.63762644 8.92325274 9.96574404 10.40634324 11.296875 11.88671875 C11.93431641 12.60263184 12.57175781 13.31854492 13.22851562 14.05615234 C16.85853223 18.03936516 20.90721565 21.50707412 25 25 C26.03082226 25.90395183 27.06071147 26.80896838 28.08984375 27.71484375 C42.13628506 40.00394376 56.95111585 52.4148661 73 62 C74.56033623 63.56033623 74.20707559 65.08947136 74.25 67.25 C74.27578125 68.01828125 74.3015625 68.7865625 74.328125 69.578125 C73.91872043 72.59992066 72.68856739 74.49381051 71 77 C69.08075213 76.77065591 67.1645594 76.51565657 65.25 76.25 C64.18265625 76.11078125 63.1153125 75.9715625 62.015625 75.828125 C58.52844478 74.87050556 57.43264588 73.59086675 55 71 C54.22914063 70.69191406 53.45828125 70.38382812 52.6640625 70.06640625 C49.08274773 68.6328301 46.34214787 66.34264143 43.375 63.9375 C42.76325928 63.451604 42.15151855 62.96570801 41.52124023 62.46508789 C38.60203145 60.1375439 35.71898024 57.77638978 32.88671875 55.34375 C31.95472656 54.5496875 31.02273438 53.755625 30.0625 52.9375 C28.84240234 51.86822266 28.84240234 51.86822266 27.59765625 50.77734375 C25.01006394 48.79943368 25.01006394 48.79943368 21.5234375 48.046875 C17.4508719 46.83684442 15.59165725 45.25163771 12.5625 42.3125 C11.61375 41.41015625 10.665 40.5078125 9.6875 39.578125 C8.800625 38.72734375 7.91375 37.8765625 7 37 C5.69615921 35.84432294 4.38457064 34.6972773 3.0625 33.5625 C-0.40874491 30.53683932 -3.83905766 27.46830961 -7.25 24.375 C-7.75781006 23.91939697 -8.26562012 23.46379395 -8.78881836 22.99438477 C-16.91328215 15.58982717 -16.91328215 15.58982717 -17.1875 10.5625 C-15.61642459 5.84927377 -13.01588115 3.76381659 -9 1 C-5.72891926 -0.63554037 -3.62707997 -0.49913945 0 0 Z " fill="#C0BED9" transform="translate(289,128)"/>
<path d="M0 0 C0.52381136 2.58009561 1.02379374 5.14956065 1.4375 7.75 C1.623125 8.4925 1.80875 9.235 2 10 C2.66 10.33 3.32 10.66 4 11 C4.495 12.485 4.495 12.485 5 14 C5.804375 14.45375 6.60875 14.9075 7.4375 15.375 C10.49237769 17.31223951 10.78437603 18.70044921 12 22 C12.99 22.33 13.98 22.66 15 23 C16.03125 25.23046875 16.03125 25.23046875 17 28 C18.24530127 30.6702133 19.50881011 33.33089916 20.78125 35.98828125 C22.25023837 39.6183775 23.11700345 43.18594545 24 47 C25.55847656 46.60167969 25.55847656 46.60167969 27.1484375 46.1953125 C44.63678464 41.75342767 44.63678464 41.75342767 50 41 C50.83660156 40.87496094 51.67320312 40.74992187 52.53515625 40.62109375 C55 41 55 41 56.984375 43.30078125 C57.85835937 44.79158203 57.85835937 44.79158203 58.75 46.3125 C59.34296875 47.29863281 59.9359375 48.28476562 60.546875 49.30078125 C62.92975969 53.72705362 63.09387763 57.02448584 63 62 C57.12505019 63.42381137 51.41430139 64.16750593 45.375 64.5 C41.32229995 64.72379368 37.53232788 64.94500423 33.625 66.0625 C29.3679701 67.16345601 25.37833388 67.41196577 21 67 C20 66 20 66 19.875 62.75 C19.97786793 59.66396211 20.27617967 56.98575886 21 54 C20.13375 54.7734375 20.13375 54.7734375 19.25 55.5625 C17 57 17 57 15.0625 56.86328125 C12.26602127 55.69278542 11.37337004 54.15844112 9.75 51.625 C9.22921875 50.83351563 8.7084375 50.04203125 8.171875 49.2265625 C7 47 7 47 7 44 C6.34 44 5.68 44 5 44 C1.84336773 38.21726188 0.03034411 32.94369904 -1.25 26.5 C-1.42273438 25.67757813 -1.59546875 24.85515625 -1.7734375 24.0078125 C-2.19216021 22.00724846 -2.59750873 20.0038927 -3 18 C-4.98 18 -6.96 18 -9 18 C-9.495 15.525 -9.495 15.525 -10 13 C-11.093125 13.165 -12.18625 13.33 -13.3125 13.5 C-17 14 -17 14 -20 14 C-20.03738281 14.56847656 -20.07476562 15.13695312 -20.11328125 15.72265625 C-20.573076 21.1229907 -21.65513674 25.12268442 -24 30 C-24.28875 30.78375 -24.5775 31.5675 -24.875 32.375 C-25.94914003 34.88132674 -27.08081192 37.31732012 -28.3125 39.75 C-28.70050781 40.52859375 -29.08851563 41.3071875 -29.48828125 42.109375 C-31 44 -31 44 -33.66796875 44.765625 C-34.43753906 44.84296875 -35.20710937 44.9203125 -36 45 C-36 45.66 -36 46.32 -36 47 C-36.66 47 -37.32 47 -38 47 C-38.33538137 40.85362311 -37.52882935 36.67522315 -34.9375 31.125 C-34.46485718 30.07965088 -34.46485718 30.07965088 -33.98266602 29.01318359 C-31.67975284 24.07550888 -28.98491039 19.66179185 -25.68359375 15.31640625 C-23.87743277 12.83136341 -22.46384004 10.26109106 -21 7.5625 C-19.05644193 4.31303415 -18.04378302 3.02918868 -14.8125 0.875 C-9.81516146 -0.27193016 -5.10165864 -0.24908641 0 0 Z " fill="#7B6591" transform="translate(214,249)"/>
<path d="M0 0 C0.99 0.66 1.98 1.32 3 2 C3 2.66 3 3.32 3 4 C3.66 4 4.32 4 5 4 C5.84114171 5.43294498 6.67265687 6.87154405 7.5 8.3125 C7.9640625 9.11300781 8.428125 9.91351563 8.90625 10.73828125 C10 13 10 13 10 16 C10.99 16.33 11.98 16.66 13 17 C13 18.98 13 20.96 13 23 C13.99 23.33 14.98 23.66 16 24 C17.4296875 26.73046875 17.4296875 26.73046875 18.875 30.1875 C23.27863202 40.0126352 28.44449396 44.83062788 38 50 C40.20877434 50.70717119 40.20877434 50.70717119 42 51 C42 51.66 42 52.32 42 53 C43.04994141 53.18369141 43.04994141 53.18369141 44.12109375 53.37109375 C47 54 47 54 49.84765625 54.97265625 C63.22628948 59.50806168 82.63976233 61.06110378 95.6875 54.625 C97.07388672 53.95017578 97.07388672 53.95017578 98.48828125 53.26171875 C99.31714844 52.84535156 100.14601563 52.42898437 101 52 C102.11375 51.484375 103.2275 50.96875 104.375 50.4375 C107.19808836 48.89152304 109.55476289 47.08564342 112 45 C108.63204602 52.30782468 102.84434633 56.36369945 96 60.3125 C95.41895508 60.64991211 94.83791016 60.98732422 94.23925781 61.33496094 C90.2227409 63.56535691 86.41959587 64.88946379 82 66 C82 66.66 82 67.32 82 68 C81.01 68 80.02 68 79 68 C79 68.66 79 69.32 79 70 C64.76564226 72.03347968 52.61852954 71.38297503 39 67 C39 66.01 39 65.02 39 64 C38.11570313 63.72929687 37.23140625 63.45859375 36.3203125 63.1796875 C20.407742 57.5260448 8.93921441 43.83655685 1.87939453 29.00488281 C-1.4956897 21.31021549 -3.67491433 13.43642909 -3 5 C-2.34 5 -1.68 5 -1 5 C-0.67 3.35 -0.34 1.7 0 0 Z " fill="#867FB4" transform="translate(109,104)"/>
<path d="M0 0 C5.38834951 0.4789644 5.38834951 0.4789644 7.6875 2.4375 C9.73463159 6.43428073 9.31470813 10.3335948 9.1875 14.75 C9.16719727 16.08224609 9.16719727 16.08224609 9.14648438 17.44140625 C9.11121309 19.62822578 9.06192752 21.81379966 9 24 C9.66 24.33 10.32 24.66 11 25 C10.67 25.61875 10.34 26.2375 10 26.875 C8.85806765 28.91018344 8.85806765 28.91018344 9 31 C9.99 31.33 10.98 31.66 12 32 C12.144375 32.78375 12.28875 33.5675 12.4375 34.375 C12.87798925 36.96421018 12.87798925 36.96421018 14 39 C19.9105481 40.71943217 25.95860536 41.83628874 32 43 C32 43.66 32 44.32 32 45 C32.99 45 33.98 45 35 45 C35.33 45.66 35.66 46.32 36 47 C39.42215347 48.25156841 39.42215347 48.25156841 43 49 C43.66 48.67 44.32 48.34 45 48 C44.1875 49.9375 44.1875 49.9375 43 52 C39.83661945 53.05446018 37.24504729 53.0064079 33.94335938 52.98632812 C23.14304775 53.04834796 17.86957145 55.6925408 10 63 C6.99449319 64.50275341 5.33001693 64.58765005 2 64 C-2.39553969 59.92783789 -3.18287922 55.25426898 -3.625 49.5 C-4.1068466 45.34166387 -4.46159217 43.54969703 -7.421875 40.52734375 C-10.3200283 38.42349924 -10.3200283 38.42349924 -13.2734375 36.68359375 C-15.97785624 35.01367329 -17.94377545 33.41630074 -20 31 C-20.75 27.6875 -20.75 27.6875 -20 24 C-16.77168337 20.03982318 -13.00922099 17.18966291 -8.1875 15.5 C-4.72479928 14.24869936 -4.72479928 14.24869936 -3.1875 10.75 C-2.05603533 7.17695367 -0.96099386 3.62220764 0 0 Z " fill="#8873C2" transform="translate(103,201)"/>
<path d="M0 0 C2.55444338 2.55444338 2.9218771 4.46430009 3.4375 8 C3.26992129 15.94323104 -2.41765274 22.70856835 -7.8125 28 C-8.58207031 28.70125 -9.35164063 29.4025 -10.14453125 30.125 C-12.23169345 31.95753925 -12.23169345 31.95753925 -13 35 C-23.575314 41.15290996 -35.84689993 44.50960242 -48 42 C-50.90978402 40.82200846 -53.66509195 39.40614068 -56.4375 37.9375 C-57.53481445 37.37192383 -57.53481445 37.37192383 -58.65429688 36.79492188 C-60.44093953 35.87240704 -62.22115829 34.9374688 -64 34 C-64 33.34 -64 32.68 -64 32 C-64.53625 31.773125 -65.0725 31.54625 -65.625 31.3125 C-72.22641968 27.66434702 -74.72446042 24.2898579 -77.3359375 17.3046875 C-78 15 -78 15 -78 12 C-75.625 12.25 -75.625 12.25 -73 13 C-72.58621094 13.9590625 -72.58621094 13.9590625 -72.1640625 14.9375 C-71.15088725 17.20862812 -71.15088725 17.20862812 -68.671875 18.046875 C-58.29943015 20.54291788 -48.69607923 21.94076169 -39 17 C-36.15265559 16.90953254 -33.8287678 17.46350956 -31 18 C-31 18.66 -31 19.32 -31 20 C-30.01 19.67 -29.02 19.34 -28 19 C-28 19.66 -28 20.32 -28 21 C-26.24970238 20.68917128 -24.49977306 20.37626821 -22.75 20.0625 C-21.77546875 19.88847656 -20.8009375 19.71445312 -19.796875 19.53515625 C-18.41242188 19.27025391 -18.41242188 19.27025391 -17 19 C-16.24460937 18.86078125 -15.48921875 18.7215625 -14.7109375 18.578125 C-13.86402344 18.29195313 -13.86402344 18.29195313 -13 18 C-11.80161791 15.67145537 -11.80161791 15.67145537 -11 13 C-8.80184938 7.97565572 -6.05775379 4.26726894 -1 2 C-0.67 1.34 -0.34 0.68 0 0 Z " fill="#9A8ED0" transform="translate(417,309)"/>
<path d="M0 0 C0 2.62834278 -0.19789762 5.08186701 -0.5 7.6875 C-0.5928125 8.49574219 -0.685625 9.30398438 -0.78125 10.13671875 C-0.8534375 10.75160156 -0.925625 11.36648438 -1 12 C-0.34 12 0.32 12 1 12 C1.04125 11.29875 1.0825 10.5975 1.125 9.875 C2.29954586 6.01577787 4.54638425 3.15143276 8 1 C10.95283785 1.31922571 12.28344967 2.18896645 14.8125 3.875 C18.53435921 6.14541521 22.39037241 6.6886895 26.625 7.375 C34.67463648 8.7638423 34.67463648 8.7638423 37.25 11.75 C38.52665718 14.12093476 39.56941297 16.3323288 40.5625 18.8125 C41.62741311 22.13201898 41.62741311 22.13201898 44.1875 22.9375 C44.785625 22.958125 45.38375 22.97875 46 23 C46.62457273 19.56484998 47 16.50935186 47 13 C45.35 13.33 43.7 13.66 42 14 C43 11 43 11 44.84765625 10.05078125 C45.57855469 9.80714844 46.30945313 9.56351562 47.0625 9.3125 C48.16271484 8.93544922 48.16271484 8.93544922 49.28515625 8.55078125 C49.85105469 8.36902344 50.41695313 8.18726563 51 8 C51 8.99 51 9.98 51 11 C53.7839183 9.60804085 53.97898997 7.84424221 55 5 C55.99 5 56.98 5 58 5 C56.43839934 8.56343981 54.21667019 11.19903419 51.75 14.1875 C48.84650862 17.9119305 48.84650862 17.9119305 47.95703125 22.3671875 C48.53534789 24.57371305 48.53534789 24.57371305 49.33984375 26.71875 C50.51884748 30.79294039 49.6381444 34.86930855 49 39 C48.67 39 48.34 39 48 39 C47.505 36.03 47.505 36.03 47 33 C44.48916886 34.25541557 44.12874554 35.50063488 43 38 C33.09104617 38.83346341 27.84989055 36.46420753 19.9375 30.8125 C16.40023271 27.72974191 13.66031796 23.92787393 10.83203125 20.20703125 C9.01394922 17.80279677 9.01394922 17.80279677 6 16 C5.67 15.01 5.34 14.02 5 13 C4.34 13 3.68 13 3 13 C3.99 14.485 3.99 14.485 5 16 C4.360625 16.61875 3.72125 17.2375 3.0625 17.875 C0.96116416 19.82597612 0.96116416 19.82597612 0 22 C-0.99 22 -1.98 22 -3 22 C-2.67 20.35 -2.34 18.7 -2 17 C-2.66 16.67 -3.32 16.34 -4 16 C-3.88487847 17.72985242 -3.75744323 19.45888751 -3.625 21.1875 C-3.55539063 22.15042969 -3.48578125 23.11335938 -3.4140625 24.10546875 C-2.83071476 28.18339963 -1.93325 31.06675 1 34 C-0.98 34.495 -0.98 34.495 -3 35 C-3.66 33.68 -4.32 32.36 -5 31 C-4.43628586 34.26954202 -3.50037734 35.82575883 -1 38 C-1.66 38.99 -2.32 39.98 -3 41 C-10.92921955 26.6692087 -10.92921955 26.6692087 -10 20 C-8.9696809 17.3345186 -7.74179907 14.92293823 -6.33984375 12.43359375 C-5.08312697 10.15098572 -4.16937828 7.95520045 -3.3125 5.5 C-2 2 -2 2 0 0 Z " fill="#554B79" transform="translate(236,409)"/>
<path d="M0 0 C3.25987205 0.90552001 4.93483532 1.93307411 7.3125 4.375 C10.02880599 10.21002768 10.14636911 16.78404085 7.9765625 22.87109375 C7.65429688 23.57363281 7.33203125 24.27617187 7 25 C7.66 25.33 8.32 25.66 9 26 C12.55285394 22.38047052 12.53872077 18.56194538 12.6875 13.75 C12.72166016 13.00492188 12.75582031 12.25984375 12.79101562 11.4921875 C12.87314054 9.66197508 12.93825653 7.83101331 13 6 C13.33 6 13.66 6 14 6 C15.18074339 13.320609 15.67633347 20.45705178 11.7734375 27.08203125 C8.48101413 31.263585 5.19797514 33.55138398 0 35 C-9.52891177 35.96101241 -9.52891177 35.96101241 -13.33203125 33.4765625 C-13.88246094 32.98929688 -14.43289063 32.50203125 -15 32 C-12.36 32 -9.72 32 -7 32 C-8.32 31.34 -9.64 30.68 -11 30 C-11 29.01 -11 28.02 -11 27 C-11.90298828 26.85884766 -11.90298828 26.85884766 -12.82421875 26.71484375 C-16.24733513 25.59019331 -17.3180797 23.40833904 -19.08203125 20.390625 C-20.70416958 16.16616262 -20.12923142 12.30288834 -19 8 C-17.4375 4.875 -17.4375 4.875 -16 3 C-15.13375 3.33 -14.2675 3.66 -13.375 4 C-9.40716321 5.17565535 -5.80955639 5.90477819 -2 4 C-0.86649466 1.98330173 -0.86649466 1.98330173 0 0 Z " fill="#736DA0" transform="translate(386,174)"/>
<path d="M0 0 C2.9375 0.375 2.9375 0.375 6 1 C6.33 1.66 6.66 2.32 7 3 C9.27897183 3.8374572 9.27897183 3.8374572 11.9375 4.5 C16.78277886 5.78277886 16.78277886 5.78277886 19 8 C21.06874034 8.6425235 21.06874034 8.6425235 23 9 C23.103125 9.598125 23.20625 10.19625 23.3125 10.8125 C24.40191685 14.27882634 26.24157734 15.58087169 29.375 17.3125 C32 19 32 19 34.375 22 C36.81797995 24.79197708 37.52458388 25.4269883 40.75 26.625 C44 28 44 28 44.9375 30.1875 C44.958125 30.785625 44.97875 31.38375 45 32 C45.8353125 32.1546875 45.8353125 32.1546875 46.6875 32.3125 C51.27874147 33.67746368 54.5365741 36.44186284 58.109375 39.53515625 C61.47299217 42.14126459 65.161894 44.25868559 68.8046875 46.44921875 C69.89136719 47.21685547 69.89136719 47.21685547 71 48 C71 48.66 71 49.32 71 50 C71.598125 50.144375 72.19625 50.28875 72.8125 50.4375 C74.56150404 50.8872439 76.28677023 51.42892341 78 52 C78 52.66 78 53.32 78 54 C79.65 54 81.3 54 83 54 C83 54.66 83 55.32 83 56 C84.65 55.67 86.3 55.34 88 55 C88.59732819 57.76264289 89 60.16032769 89 63 C84.47260257 64.50913248 80.49308926 63.40131002 76 62 C73.6875 60 73.6875 60 72 58 C71.27683594 57.73316406 70.55367188 57.46632812 69.80859375 57.19140625 C66.2006865 55.66093099 63.39261257 53.38354763 60.375 50.9375 C59.76325928 50.451604 59.15151855 49.96570801 58.52124023 49.46508789 C55.60203145 47.1375439 52.71898024 44.77638978 49.88671875 42.34375 C48.95472656 41.5496875 48.02273438 40.755625 47.0625 39.9375 C45.84240234 38.86822266 45.84240234 38.86822266 44.59765625 37.77734375 C42.01006394 35.79943368 42.01006394 35.79943368 38.5234375 35.046875 C34.4508719 33.83684442 32.59165725 32.25163771 29.5625 29.3125 C28.61375 28.41015625 27.665 27.5078125 26.6875 26.578125 C25.3571875 25.30195313 25.3571875 25.30195313 24 24 C22.69615921 22.84432294 21.38457064 21.6972773 20.0625 20.5625 C16.60564626 17.54222613 13.16470733 14.50531643 9.75 11.4375 C9.24218994 10.99027588 8.73437988 10.54305176 8.21118164 10.08227539 C4.79167179 6.9883793 2.39845616 3.88892535 0 0 Z " fill="#9189B5" transform="translate(272,141)"/>
<path d="M0 0 C3.12960434 -0.5007367 5.88505868 -0.65444207 9 0 C12.86724297 3.12721499 15.13244201 7.09309653 15.875 12 C15.91625 12.99 15.9575 13.98 16 15 C15.34 15 14.68 15 14 15 C13.67 15.99 13.34 16.98 13 18 C7.26498209 22.68164727 1.60000985 26 -6 26 C-6 26.66 -6 27.32 -6 28 C-12.24309927 30.77471079 -17.19796625 31.37634203 -24 31 C-24 30.34 -24 29.68 -24 29 C-24.66 29 -25.32 29 -26 29 C-26.99586102 26.41076135 -26.98047251 24.88771695 -26.5 22.125 C-24.50087091 17.96014772 -21.89299797 15.45831135 -18 13 C-14.5625 12.125 -14.5625 12.125 -12 12 C-12 11.01 -12 10.02 -12 9 C-10.3203125 7.61328125 -10.3203125 7.61328125 -8.125 6.3125 C-7.40570313 5.87550781 -6.68640625 5.43851562 -5.9453125 4.98828125 C-4 4 -4 4 -2 4 C-2 3.34 -2 2.68 -2 2 C-1.34 2 -0.68 2 0 2 C0 1.34 0 0.68 0 0 Z " fill="#756694" transform="translate(305,271)"/>
<path d="M0 0 C0.9075 0.845625 1.815 1.69125 2.75 2.5625 C6.89151584 6.13656889 11.4673591 8.72695919 16.23046875 11.38671875 C19 13 19 13 20.80078125 14.64453125 C27.16242614 18.56547402 36.92762475 17.15182252 44.125 17.125 C45.17042969 17.12886719 46.21585937 17.13273437 47.29296875 17.13671875 C52.63644677 17.1299634 57.73684557 16.93931651 63 16 C62.34 16.99 61.68 17.98 61 19 C61.99 19.66 62.98 20.32 64 21 C62.71186658 21.83878455 61.41936744 22.67086783 60.125 23.5 C59.40570313 23.9640625 58.68640625 24.428125 57.9453125 24.90625 C56 26 56 26 54 26 C54 26.66 54 27.32 54 28 C44.66884349 31.04276843 34.96925871 32.51850459 25.81640625 28.15234375 C24.39314563 27.42431643 22.9751824 26.68584685 21.5625 25.9375 C20.83095703 25.56044922 20.09941406 25.18339844 19.34570312 24.79492188 C17.55906047 23.87240704 15.77884171 22.9374688 14 22 C14 21.34 14 20.68 14 20 C13.46375 19.773125 12.9275 19.54625 12.375 19.3125 C5.77358032 15.66434702 3.27553958 12.2898579 0.6640625 5.3046875 C0 3 0 3 0 0 Z " fill="#7E74BB" transform="translate(339,321)"/>
<path d="M0 0 C6.57904458 0.81028674 11.78775451 1.91443516 17.24609375 5.78125 C19.09027145 7.0627276 20.97375418 8.0380899 23 9 C23 9.66 23 10.32 23 11 C23.66 11 24.32 11 25 11 C26.60725635 14.21451269 26.05748185 17.43612536 26 21 C26.66 21 27.32 21 28 21 C28.66 22.32 29.32 23.64 30 25 C32.97 25 35.94 25 39 25 C39 24.01 39 23.02 39 22 C43.59615778 19.62778953 47.94612651 19.52477139 53 20 C56.0625 21 56.0625 21 58 22 C58 22.66 58 23.32 58 24 C58.99 24.33 59.98 24.66 61 25 C60.505 25.495 60.505 25.495 60 26 C58.03970824 26 56.07939675 25.99814707 54.11914062 25.98632812 C43.23379501 26.04753087 37.93291067 28.63372581 30 36 C26.99449319 37.50275341 25.33001693 37.58765005 22 37 C17.60446031 32.92783789 16.81712078 28.25426898 16.375 22.5 C15.8931534 18.34166387 15.53840783 16.54969703 12.578125 13.52734375 C9.6799717 11.42349924 9.6799717 11.42349924 6.7265625 9.68359375 C4.00558962 8.00345147 2.01207739 6.48410502 0 4 C0 2.68 0 1.36 0 0 Z " fill="#5F4EA9" transform="translate(83,228)"/>
<path d="M0 0 C2.475 0.99 2.475 0.99 5 2 C5 2.66 5 3.32 5 4 C7.26698691 5.22068526 9.4195103 6.13679684 11.875 6.9375 C15 8 15 8 17.43408203 9.5480957 C22.67103007 11.68037901 27.58055727 11.36980368 33.1796875 11.29296875 C34.3475882 11.28872391 35.51548889 11.28447906 36.71878052 11.28010559 C40.43775786 11.263354 44.15618727 11.22570698 47.875 11.1875 C50.40103382 11.17244867 52.92707617 11.15876105 55.453125 11.14648438 C61.63560265 11.11346192 67.81776217 11.06329691 74 11 C74 12.98 74 14.96 74 17 C70.04 17.495 70.04 17.495 66 18 C68.31 18.33 70.62 18.66 73 19 C73.05399736 20.45792884 73.09279177 21.91642712 73.125 23.375 C73.14820313 24.18710937 73.17140625 24.99921875 73.1953125 25.8359375 C73 28 73 28 71 30 C71.33 26.7 71.66 23.4 72 20 C71.26587891 20.0407666 70.53175781 20.0815332 69.77539062 20.12353516 C22.82640367 22.61503587 22.82640367 22.61503587 6.80859375 8.77734375 C4.29803107 6.31016012 2.09205474 3.83439674 0 1 C0 0.67 0 0.34 0 0 Z " fill="#1E1C62" transform="translate(168,377)"/>
<path d="M0 0 C2.23256478 1.60349957 4.12865059 3.37849281 6.11328125 5.27734375 C11.45105679 10.15096489 16.61071623 10.11399376 23.40625 9.91796875 C26.89455816 10.02829175 29.14928065 11.02642506 32 13 C34.51528943 16.77293414 34.06379464 18.35303192 33.4921875 22.66796875 C33 25 33 25 31.4375 28.5625 C29.36200486 33.52564055 29.08525413 37.48147891 30.90234375 42.484375 C31.62996085 44.1933689 32.35911034 45.90171125 33.08984375 47.609375 C34.37212013 50.97741424 34.62626553 53.45116202 34 57 C30.82718559 61.19931319 27.98620287 62.63690785 23 64 C20.44057751 64.24323973 17.87743371 64.44914754 15.3125 64.625 C8.07140487 65.28826836 4.05879607 67.60356 -1.6015625 72.26953125 C-4.05788299 74.04176248 -5.38542371 74.65135184 -8.375 74.8125 C-12.8388219 73.8119882 -14.32821482 72.6933501 -17 69 C-18.17549393 65.84472681 -18.900266 62.8849637 -19.27734375 59.5390625 C-19.92738164 54.29656744 -19.92738164 54.29656744 -22.90625 50.09765625 C-25.08446903 48.48722159 -25.08446903 48.48722159 -27.3203125 47.15625 C-28.15175781 46.58390625 -28.15175781 46.58390625 -29 46 C-29 45.34 -29 44.68 -29 44 C-29.78375 43.7525 -30.5675 43.505 -31.375 43.25 C-34 42 -34 42 -35.375 40.3125 C-36.31263269 36.84325904 -35.91168904 34.46441837 -35 31 C-31.10959021 26.04856936 -25.58827478 22.79413739 -20 20 C-19.10869433 17.58788564 -18.30962493 15.20649125 -17.5625 12.75 C-16.1719972 8.19687097 -14.8513305 3.87955965 -12 0 C-7.76582643 -1.41139119 -4.28315188 -1.26753438 0 0 Z M-11.05859375 2.54296875 C-13.51378534 5.65024342 -14.57388382 8.88668717 -15.6875 12.625 C-18.53122934 21.75259326 -18.53122934 21.75259326 -21.109375 23.11328125 C-21.98078125 23.50902344 -22.8521875 23.90476563 -23.75 24.3125 C-27.93496388 26.36900804 -31.23116378 28.12362929 -34 32 C-35.08395602 35.41239564 -35.08395602 35.41239564 -34 39 C-31.17441595 42.32254607 -27.81563969 45.01667483 -23.98046875 47.09375 C-21.89285011 48.25402646 -20.52044584 49.14215186 -19 51 C-18.21770641 54.2465184 -17.86234365 57.43098498 -17.5078125 60.75 C-16.79969893 65.28192686 -15.34050303 68.79868459 -12 72 C-9.17988873 73.17012421 -9.17988873 73.17012421 -6 72 C-1.89161177 69.71675415 1.85304934 67.12267657 5.21484375 63.83203125 C9.11761587 61.26485015 12.42506736 61.44121342 17 61.4375 C25.22468803 61.43678187 25.22468803 61.43678187 32 57 C32.58062648 51.6775906 32.03679916 48.61179166 29.5 43.875 C26.0755988 37.43712575 26.0755988 37.43712575 27 33 C27.80557885 31.36106371 28.64238469 29.73731679 29.5 28.125 C32.01695428 23.35716947 32.93931261 20.3540819 32 15 C27.69819898 11.29707716 23.58950421 11.79122578 18.25 11.875 C13.39308891 11.80857402 10.03334439 11.67245276 5.890625 8.9765625 C3.7394035 6.74800951 1.86195994 4.46994687 0 2 C-3.72036647 0.13981676 -7.69308884 0.0204366 -11.05859375 2.54296875 Z " fill="#D9D1F3" transform="translate(117,193)"/>
<path d="M0 0 C3.23680222 0.50115326 6.46164174 1.05796332 9.6875 1.625 C11.05551758 1.83576172 11.05551758 1.83576172 12.45117188 2.05078125 C20.05051224 3.4324795 20.05051224 3.4324795 23 6.83984375 C27.07691322 13.28168514 29.66869115 19.31005175 29 27 C26.12875366 28.43562317 24.18768924 28.3335052 21 28 C18.2265625 26.1015625 18.2265625 26.1015625 15.625 23.625 C14.75101562 22.81289063 13.87703125 22.00078125 12.9765625 21.1640625 C11 19 11 19 11 17 C10.24332031 16.8040625 9.48664063 16.608125 8.70703125 16.40625 C4.98390054 14.47215612 4.31898382 12.3110113 2.6875 8.5 C2.17574219 7.3346875 1.66398438 6.169375 1.13671875 4.96875 C0 2 0 2 0 0 Z " fill="#85759A" transform="translate(250,414)"/>
<path d="M0 0 C0.66 0.66 1.32 1.32 2 2 C4.84881675 1.72045367 4.84881675 1.72045367 8 1 C10 0.66666667 12 0.33333333 14 0 C14 0.66 14 1.32 14 2 C14.53625 2.2475 15.0725 2.495 15.625 2.75 C18.56424252 4.29696975 21.25754408 6.13014369 24 8 C23.67 8.66 23.34 9.32 23 10 C23.99 10.33 24.98 10.66 26 11 C25.375 12.875 25.375 12.875 24 15 C20.875 16.25 20.875 16.25 18 17 C17.505 16.01 17.505 16.01 17 15 C13.04 15 9.08 15 5 15 C5.33 15.99 5.66 16.98 6 18 C2.19399114 18.28545066 -0.53122091 17.90506038 -4 16.4375 C-8.75278418 14.51828048 -11.98969147 15.1584755 -16.6875 17.125 C-19 18 -19 18 -22 17 C-22 16.01 -22 15.02 -22 14 C-21.01 14 -20.02 14 -19 14 C-19 13.34 -19 12.68 -19 12 C-16.58394775 11.18563413 -14.16720002 10.37344603 -11.75 9.5625 C-11.06808594 9.33240234 -10.38617188 9.10230469 -9.68359375 8.86523438 C-6.47933387 7.79196286 -3.29953381 6.73984392 0 6 C0 4.02 0 2.04 0 0 Z " fill="#1B0F44" transform="translate(279,311)"/>
<path d="M0 0 C0.70125 0.144375 1.4025 0.28875 2.125 0.4375 C3.07375 0.623125 4.0225 0.80875 5 1 C5.90105469 1.185625 6.80210937 1.37125 7.73046875 1.5625 C11.34298638 2.04589543 14.55958609 1.87746359 18.1875 1.5625 C24.87341772 1 24.87341772 1 28 1 C26.60364382 4.37452744 25.1393647 6.11638118 22 8 C19.25 8.6875 19.25 8.6875 17 9 C17.04640625 9.58007812 17.0928125 10.16015625 17.140625 10.7578125 C17.40323047 16.44134527 16.77123925 19.4745129 13 24 C12.5978125 24.54527344 12.195625 25.09054687 11.78125 25.65234375 C9.04910315 27.71942854 6.67297258 27.28731602 3.3125 27.1875 C1.54326172 27.14689453 1.54326172 27.14689453 -0.26171875 27.10546875 C-1.16535156 27.07066406 -2.06898438 27.03585937 -3 27 C-3 26.67 -3 26.34 -3 26 C0.96 26 4.92 26 9 26 C9 25.34 9 24.68 9 24 C8.01 23.67 7.02 23.34 6 23 C8 21 8 21 10.625 20.875 C11.40875 20.91625 12.1925 20.9575 13 21 C12.67 19.68 12.34 18.36 12 17 C11.01 17.66 10.02 18.32 9 19 C6.5625 19.4375 6.5625 19.4375 4 19 C0.81497861 15.63803298 -0.94951181 13.33793702 -1.125 8.6875 C-1.0212683 5.62741475 -0.71804558 2.961938 0 0 Z " fill="#4D4677" transform="translate(256,447)"/>
<path d="M0 0 C0.37511719 0.83144531 0.75023437 1.66289062 1.13671875 2.51953125 C1.64847656 3.60621094 2.16023438 4.69289062 2.6875 5.8125 C3.18636719 6.89144531 3.68523437 7.97039062 4.19921875 9.08203125 C7.04542024 13.69398898 10.7896951 15.11318802 15.8125 16.6875 C16.60269531 16.93886719 17.39289063 17.19023437 18.20703125 17.44921875 C18.79871094 17.63097656 19.39039063 17.81273437 20 18 C19.67 19.65 19.34 21.3 19 23 C14.30377285 24.56540905 9.88944983 24.80933438 5 24 C1.73796935 22.1524297 -0.55959809 19.82136963 -3 17 C-3.52851563 16.41347656 -4.05703125 15.82695312 -4.6015625 15.22265625 C-7.12371558 12.11575818 -7.95901584 10.3073812 -8.5 6.25 C-8 3 -8 3 -6.8125 1.0625 C-4.45429135 -0.31989817 -2.69115806 -0.07487674 0 0 Z " fill="#1A114C" transform="translate(258,216)"/>
<path d="M0 0 C3.25987205 0.90552001 4.93483532 1.93307411 7.3125 4.375 C9.67108329 9.44158632 9.91630734 14.48564592 9 20 C8.01 20.66 7.02 21.32 6 22 C6 21.34 6 20.68 6 20 C2.7 20 -0.6 20 -4 20 C-4 19.34 -4 18.68 -4 18 C-5.32 17.34 -6.64 16.68 -8 16 C-8 15.34 -8 14.68 -8 14 C-8.66 14 -9.32 14 -10 14 C-10 11.36 -10 8.72 -10 6 C-8.72125 5.7525 -7.4425 5.505 -6.125 5.25 C-2.73252682 4.48009414 -2.73252682 4.48009414 -0.5 1.875 C-0.335 1.25625 -0.17 0.6375 0 0 Z " fill="#B3AFCE" transform="translate(386,174)"/>
<path d="M0 0 C2.475 0.99 2.475 0.99 5 2 C5 2.66 5 3.32 5 4 C7.26698691 5.22068526 9.4195103 6.13679684 11.875 6.9375 C15 8 15 8 18 9.5625 C20.9462411 11.1525128 20.9462411 11.1525128 24.25 11.5 C25.1575 11.665 26.065 11.83 27 12 C27.99 13.485 27.99 13.485 29 15 C31.64691668 15.80092254 31.64691668 15.80092254 34.625 16.1875 C36.12933594 16.42533203 36.12933594 16.42533203 37.6640625 16.66796875 C38.82035156 16.83232422 38.82035156 16.83232422 40 17 C40 17.66 40 18.32 40 19 C50.89 19 61.78 19 73 19 C73 21.97 73 24.94 73 28 C72.34 28.66 71.68 29.32 71 30 C71.33 26.7 71.66 23.4 72 20 C71.26587891 20.0407666 70.53175781 20.0815332 69.77539062 20.12353516 C22.82640367 22.61503587 22.82640367 22.61503587 6.80859375 8.77734375 C4.29803107 6.31016012 2.09205474 3.83439674 0 1 C0 0.67 0 0.34 0 0 Z " fill="#676687" transform="translate(168,377)"/>
<path d="M0 0 C0.8765625 0.13277344 1.753125 0.26554687 2.65625 0.40234375 C15.07319999 2.13112642 27.47733348 2.61415632 40 3 C39.34 3.66 38.68 4.32 38 5 C37.01 5 36.02 5 35 5 C35 5.66 35 6.32 35 7 C28.78883209 10.10558396 16.29021454 8.82125555 9.75 6.75 C6.17349735 5.26860837 3.06499262 3.35768663 0 1 C0 0.67 0 0.34 0 0 Z " fill="#4E448F" transform="translate(355,341)"/>
<path d="M0 0 C-0.66 0.66 -1.32 1.32 -2 2 C-3.96084673 1.8249244 -5.9210305 1.62923548 -7.87109375 1.359375 C-12.09388145 0.87436068 -16.31879689 0.65873374 -20.5625 0.4375 C-21.79613281 0.37212036 -21.79613281 0.37212036 -23.0546875 0.30541992 C-25.03635122 0.2015491 -27.01816154 0.10048156 -29 0 C-29 -0.66 -29 -1.32 -29 -2 C-29.66 -2.33 -30.32 -2.66 -31 -3 C-21.43819854 -5.88701735 -8.80564947 -4.75225527 0 0 Z " fill="#3E386F" transform="translate(354,117)"/>
<path d="M0 0 C5.28 0 10.56 0 16 0 C15.67 1.32 15.34 2.64 15 4 C17.31 3.34 19.62 2.68 22 2 C18.95578642 5.18258692 17.73389693 5.9612955 13.1484375 6.203125 C11.5573578 6.224446 9.96618996 6.23981638 8.375 6.25 C7.59253906 6.270625 6.81007813 6.29125 6.00390625 6.3125 C0.33747167 6.35008829 -3.80222921 5.25990034 -9 3 C-4.37411598 1.70797196 -1.59980309 2.69672246 3 4 C2.01 2.68 1.02 1.36 0 0 Z " fill="#645C8F" transform="translate(282,325)"/>
<path d="M0 0 C1.32 0.66 2.64 1.32 4 2 C4 2.99 4 3.98 4 5 C4.99 5.33 5.98 5.66 7 6 C7.14695313 7.32064453 7.14695313 7.32064453 7.296875 8.66796875 C7.44640625 9.82941406 7.5959375 10.99085938 7.75 12.1875 C7.88921875 13.33605469 8.0284375 14.48460937 8.171875 15.66796875 C9.08783338 19.35340508 10.44330569 21.2406409 13 24 C8.73591099 22.45302817 6.51183263 19.24751983 3.875 15.75 C3.21177734 14.90888672 3.21177734 14.90888672 2.53515625 14.05078125 C-0.167026 10.51590235 -1.82458497 7.35828044 -3 3 C-2.01 3 -1.02 3 0 3 C0 2.01 0 1.02 0 0 Z " fill="#4B466F" transform="translate(237,447)"/>
<path d="M0 0 C4.48696622 4.2444275 7.69100506 7.38328609 8.43359375 13.671875 C8.45613639 15.0310637 8.45668025 16.3907597 8.4375 17.75 C8.43427734 18.45576172 8.43105469 19.16152344 8.42773438 19.88867188 C8.27643087 25.5703794 7.0298152 30.13065414 4 35 C3.505 33.515 3.505 33.515 3 32 C3.474375 31.0925 3.94875 30.185 4.4375 29.25 C7.22048929 23.41837244 6.21946346 16.31567059 6 10 C5.34 10 4.68 10 4 10 C3.67 11.65 3.34 13.3 3 15 C2.67 15 2.34 15 2 15 C1.71125 14.0925 1.4225 13.185 1.125 12.25 C-0.15707036 8.48607414 -0.15707036 8.48607414 -2 5 C-2.99 4.67 -3.98 4.34 -5 4 C-4.67 3.34 -4.34 2.68 -4 2 C-3.34 2.33 -2.68 2.66 -2 3 C-1.67 2.34 -1.34 1.68 -1 1 C-0.67 0.67 -0.34 0.34 0 0 Z " fill="#7871A4" transform="translate(302,363)"/>
<path d="M0 0 C2.02350324 3.03525486 2.32124018 4.19426202 2.625 7.6875 C2.69976562 8.49574219 2.77453125 9.30398437 2.8515625 10.13671875 C2.92503906 11.05904297 2.92503906 11.05904297 3 12 C1.50146484 12.18175781 1.50146484 12.18175781 -0.02734375 12.3671875 C-1.96287109 12.61855469 -1.96287109 12.61855469 -3.9375 12.875 C-5.86916016 13.11863281 -5.86916016 13.11863281 -7.83984375 13.3671875 C-8.88269531 13.57601562 -9.92554688 13.78484375 -11 14 C-11.33 14.66 -11.66 15.32 -12 16 C-12.721875 16.226875 -13.44375 16.45375 -14.1875 16.6875 C-17.69591268 18.32475925 -19.26949034 20.49202775 -21.5703125 23.5390625 C-22.04210937 24.02117187 -22.51390625 24.50328125 -23 25 C-23.99 25 -24.98 25 -26 25 C-23.24581707 18.49011308 -19.41918063 14.71404787 -13 12 C-9.3515625 11.26953125 -9.3515625 11.26953125 -5.625 10.8125 C-4.37976563 10.65394531 -3.13453125 10.49539062 -1.8515625 10.33203125 C-0.91054687 10.22246094 0.03046875 10.11289063 1 10 C0.505 5.05 0.505 5.05 0 0 Z " fill="#7B7999" transform="translate(214,231)"/>
<path d="M0 0 C1.75029762 0.31082872 3.50022694 0.62373179 5.25 0.9375 C6.71179688 1.19853516 6.71179688 1.19853516 8.203125 1.46484375 C9.78793999 1.76808349 11.36951916 2.10073963 12.92626953 2.52514648 C16.44492482 3.33086635 20.03323846 3.14564655 23.625 3.125 C24.82745361 3.12209961 24.82745361 3.12209961 26.05419922 3.11914062 C31.75961177 3.07760476 37.33692023 2.73071997 43 2 C42.01 2.33 41.02 2.66 40 3 C40 3.66 40 4.32 40 5 C25.76564226 7.03347968 13.61852954 6.38297503 0 2 C0 1.34 0 0.68 0 0 Z " fill="#C9C3F4" transform="translate(148,169)"/>
<path d="" fill="#F9F7F8" transform="translate(0,0)"/>
<path d="" fill="#D6D6EF" transform="translate(0,0)"/>
</svg>
